<svg id="Layer_1" data-name="Layer 1" xmlns="http://www.w3.org/2000/svg" viewBox="0 0 223.27 233.07"><defs><style>.cls-1{fill:#fff;}</style></defs><title>OPENPAY_BRAND_ICON_MONO_WHITE_RGB</title><path class="cls-1" d="M246.92,189.88c0,34.88-20,71.95-57,71.95-26.06,0-42.9-19.09-42.9-48.62,0-40.77,24.5-71.51,57-71.51a52.49,52.49,0,0,1,9.5.83,5.3,5.3,0,0,0,6.17-4.1c2.28-10.73,7.39-34.82,9.69-45.62a5.31,5.31,0,0,0-4.4-6.36,115.87,115.87,0,0,0-16.55-1.17c-70.17,0-123.09,56.13-123.09,130.57,0,59.33,42.32,102.39,100.63,102.39,68.77,0,122.65-57.35,122.65-130.57a121.44,121.44,0,0,0-2.25-23.5,5.32,5.32,0,0,0-6.86-4l-49.37,16.05a5.35,5.35,0,0,0-3.63,5.67A75.54,75.54,0,0,1,246.92,189.88Z" transform="translate(-85.34 -85.18)"/><path class="cls-1" d="M286.3,103.59c-9.65-9.22-22.16-15.68-37.12-18.32a6,6,0,0,0-7,4.65c-3.36,15.84-13.07,61.58-16.33,76.91a3,3,0,0,0,3.87,3.47l72.8-23.67a6,6,0,0,0,4-7A73.22,73.22,0,0,0,286.3,103.59Z" transform="translate(-85.34 -85.18)"/></svg>